<svg version="1.1" id="Layer_1" xmlns="http://www.w3.org/2000/svg" x="0" y="0" width="75" height="95" viewBox="0 0 75 95" xml:space="preserve"><path fill="#D3D3D3" d="M5.283 7.513h66.538v85.602H5.283z"/><path fill="#93301E" d="M5.283 2.295v85.602h62.533V2.295H5.283zm57.305 80.384H10.501V7.513h52.086v75.166z"/><path fill="#B3C4CD" d="M10.501 7.513h52.086v75.166H10.501z"/><path fill="#65200D" d="M58.592 7.513h3.996v75.166h-3.996zM1.277 2.295h4.005v85.602H1.277zm18.249 11.219h31.586v3.914H19.526zm0 9.398h31.586v3.915H19.526zm0 9.39h31.586v3.923H19.526zm0 9.399h31.586v3.915H19.526z"/><path fill="#0480AA" d="M29.181 73.021c0 4.18-3.381 7.571-7.561 7.571s-7.57-3.392-7.57-7.571c0-4.182 3.391-7.57 7.57-7.57s7.561 3.389 7.561 7.57z"/><path fill="#18AEE5" d="M25.201 73.021a3.587 3.587 0 01-3.581 3.589 3.59 3.59 0 010-7.18 3.584 3.584 0 013.581 3.591z"/><path opacity=".42" fill="#FFF" d="M62.588 7.513v3.656L10.501 44.767V7.513zm0 21.365v13.23L10.501 75.713v-13.23zM16.534 82.679l46.054-29.708v29.708z"/><path opacity=".6" fill="#FFF" d="M62.588 11.169v17.709L10.501 62.483V44.767zm0 30.939v10.863L16.534 82.679h-6.033v-6.966z"/></svg>