<svg version="1.1" id="Layer_1" xmlns="http://www.w3.org/2000/svg" x="0" y="0" width="200" height="514" viewBox="0 0 200 514" xml:space="preserve"><path opacity=".4" fill="#D5E7F7" d="M20.146 117.975c3.981 10.94 14.443 17.642 25.464 17.339a25.997 25.997 0 008.35-1.584c13.69-4.991 20.744-20.122 15.754-33.813C64.739 86.225 49.593 79.171 35.9 84.161a26.21 26.21 0 00-13.93 11.805c-3.663 6.478-4.575 14.459-1.824 22.009z"/><path opacity=".4" fill="#FFF" d="M24.23 92.593l46.541 21.685a26.085 26.085 0 00.3-8.922l-.002-.002-40.198-18.73a26.228 26.228 0 00-6.641 5.969zm-5.679 15.829l43.755 20.385a26.36 26.36 0 006.979-9.718L21.503 96.827a26.37 26.37 0 00-2.952 11.595z"/><path fill="#335BAA" d="M16.347 119.36c5.751 15.787 23.213 23.922 39.001 18.17 15.786-5.75 23.922-23.211 18.171-38.998S50.306 74.61 34.521 80.361c-15.79 5.752-23.923 23.213-18.174 38.999zm6.03-2.196c-4.538-12.458 1.882-26.235 14.339-30.773 12.456-4.538 26.234 1.879 30.771 14.337 4.54 12.458-1.88 26.234-14.336 30.772-12.458 4.539-26.236-1.878-30.774-14.336z"/><path fill="#335BAA" d="M51.255 135.163c1.526 7.351 3.626 14.493 5.819 21.601 1.17 3.527 2.261 7.083 3.529 10.575l1.852 5.256c.605 1.756 1.565 3.383 4.059 4.451 2.159.925 4.651-.011 5.699-2.076 1.223-2.422.91-4.286.246-6.02l-1.965-5.215c-1.274-3.488-2.727-6.913-4.1-10.367-2.894-6.854-5.88-13.672-9.441-20.282a3.062 3.062 0 00-4.15-1.245 3.074 3.074 0 00-1.548 3.322z"/><path fill="#F58B7D" d="M169.477 128.18c.284.405.753 1.101 1.124 1.686l1.189 1.869a78.095 78.095 0 012.238 3.879c1.423 2.627 2.771 5.297 3.883 8.035 2.218 5.471 3.812 11.103 4.174 16.675l.078 1.082.028.224c.04.134-.294.603-1.112 1.07-1.646.946-4.479 1.655-7.339 1.979-5.808.697-12.299.561-18.488.166l-1.386 6.643c6.598 2.021 13.148 3.381 20.373 3.551 1.807.015 3.654-.052 5.59-.301 1.937-.251 3.955-.665 6.117-1.575 2.115-.9 4.565-2.379 6.365-5.018a12.583 12.583 0 001.843-4.282c.35-1.46.36-3.052.36-3.783.113-7.482-1.486-14.701-3.989-21.352-1.255-3.333-2.677-6.575-4.352-9.678a91.061 91.061 0 00-2.656-4.581c-.471-.751-.942-1.503-1.451-2.244a55.066 55.066 0 00-1.675-2.32l-10.914 8.275z"/><path fill="#335BAA" d="M174.26 105.926c5.526 1.354 18.619 23.159 18.619 23.159l-29.326 12.152s-5.291-16.601-1.971-23.245c3.455-6.918 5.201-13.897 12.678-12.066z"/><path fill="#F58B7D" d="M153.903 164.122l-13.432-1.424 7.559 11.296s8.563-.79 10.759-5.925l-4.886-3.947z"/><path fill="#F58B7D" d="M130.896 168.675l10.318 11.211 6.816-5.891-7.558-11.297z"/><path fill="#335BAA" d="M169.036 488.87c-.447-.409-.618-.978-.516-1.687.079-.538.392-.782.641-.891 1.574-.716 5.612 1.921 6.068 2.222a.324.324 0 01.138.321.316.316 0 01-.239.253c-.95.225-2.303.48-3.541.48-1.031.001-1.983-.176-2.551-.698zm.384-1.999c-.105.046-.23.134-.271.405-.072.494.031.863.317 1.125.673.619 2.429.7 4.766.235-1.65-.999-3.992-2.128-4.812-1.765z"/><path fill="#335BAA" d="M174.896 489.058c-1.269-.725-3.683-3.611-3.38-5.124.058-.29.274-.79 1.071-.891a1.64 1.64 0 011.343.429c1.448 1.29 1.442 5.148 1.44 5.312a.313.313 0 01-.159.271c-.049.028-.103.044-.157.044s-.108-.016-.158-.041zm-2.23-5.383c-.409.05-.497.231-.528.384-.184.922 1.32 3.09 2.584 4.105-.065-1.281-.349-3.448-1.212-4.22a1.028 1.028 0 00-.844-.269zm-65.27 5.07c-.436-.394-.624-.912-.563-1.546.036-.379.225-.673.545-.844 1.657-.897 6.966 1.83 7.567 2.143a.318.318 0 01-.085.594c-1.139.225-2.743.478-4.22.478-1.331-.001-2.559-.207-3.244-.825zm.284-1.831c-.133.072-.198.178-.216.348-.041.425.077.759.358 1.012.809.73 3.014.858 5.984.366-2.182-1.051-5.225-2.212-6.126-1.726z"/><path fill="#335BAA" d="M114.668 489.069c-1.63-.739-4.731-3.576-4.479-5.125.06-.36.315-.81 1.198-.901.649-.068 1.243.119 1.757.551 1.675 1.405 1.959 5.011 1.972 5.163a.325.325 0 01-.135.285.33.33 0 01-.183.057.301.301 0 01-.13-.03zm-3.217-5.394c-.584.06-.621.297-.634.372-.15.912 1.98 3.183 3.596 4.167-.148-1.047-.578-3.212-1.678-4.133-.331-.278-.69-.416-1.094-.416a1.78 1.78 0 00-.19.01z"/><path fill="#F58B7D" d="M150.88 73.525c-1.609 7.95-5.236 24.052.292 29.357 0 0-2.227 8.064-16.998 8.064-16.243 0-7.71-8.064-7.71-8.064 8.878-2.117 8.692-8.694 7.188-14.872l17.228-14.485z"/><path fill="#13274C" d="M117.358 59.374a.634.634 0 00.435-1.097c-2.552-2.4-5.405-1.729-5.523-1.699a.636.636 0 00-.465.769c.084.34.431.546.767.464.102-.024 2.323-.517 4.354 1.392a.63.63 0 00.432.171z"/><path fill="#F15955" d="M115.409 67.546s-.741 4.956-2.202 7.609c1.688.969 3.911-.184 3.911-.184l-1.709-7.425z"/><path fill="#13274C" d="M115.935 65.514c.24 1.053-.119 2.039-.806 2.201-.688.163-1.442-.559-1.685-1.612-.243-1.053.119-2.039.806-2.202.688-.162 1.44.559 1.685 1.613z"/><path fill="#13274C" d="M114.566 63.888l-2.693-.131s1.751 1.669 2.693.131z"/><path fill="#F58B7D" d="M129.53 488.779h-13.397l-.693-31.024h13.398zm60.874 0h-13.399l-4.105-31.024h13.399z"/><path fill="#14375B" d="M176.185 487.229h15.054c.547 0 .988.378 1.062.916l1.638 11.908c.172 1.234-.899 2.402-2.162 2.381-5.248-.091-7.775-.396-14.394-.396-4.072 0-10.025.421-15.648.421-5.499 0-5.887-5.56-3.543-6.063 10.515-2.259 12.193-5.373 15.75-8.345a3.524 3.524 0 012.243-.822zm-60.5 0h15.052c.546 0 .99.378 1.062.916l1.639 11.908c.17 1.234-.899 2.402-2.163 2.381-5.249-.091-7.774-.396-14.393-.396-4.073 0-12.499.421-18.122.421-5.502 0-5.887-5.56-3.543-6.063 10.516-2.259 14.668-5.373 18.223-8.345a3.527 3.527 0 012.245-.822z"/><path d="M115.444 457.762l.353 15.994h13.405l-.356-15.994zm70.858 0h-13.404l2.123 15.994h13.404z" fill="#EA7063"/><path fill="#335BAA" d="M103.795 106.314s-6.397 2.248 5.876 80.862h54.413c-.768-22.146-.705-35.802 10.176-81.25 0 0-11.388-2.48-23.088-3.044-9.153-.441-16.654-.734-24.708 0-10.62.969-22.669 3.432-22.669 3.432z"/><path fill="#F58B7D" d="M99.404 121.214a282.045 282.045 0 01-4.402 20.901c-.879 3.442-1.87 6.83-2.976 10.127-1.096 3.283-2.307 6.513-3.757 9.414a33.633 33.633 0 01-2.281 4.061c-.4.628-.828 1.16-1.237 1.697-.3.391-.582.683-.82.889-.485.383-.704.579-1.432.636-.703.039-1.839-.2-3.072-.753-2.479-1.134-5.234-3.134-7.747-5.423a121.666 121.666 0 01-3.745-3.624c-1.213-1.244-2.439-2.614-3.546-3.852l-5.728 3.639c.909 1.859 1.856 3.48 2.903 5.158a49.289 49.289 0 003.39 4.853c2.497 3.119 5.214 6.233 9.182 8.749 1.982 1.244 4.367 2.381 7.354 2.756 2.956.425 6.522-.336 9.11-2.008a17.296 17.296 0 003.343-2.747c.786-.872 1.552-1.751 2.207-2.642a45.54 45.54 0 003.489-5.39c3.968-7.255 6.423-14.604 8.522-21.994 1.034-3.695 1.986-7.391 2.752-11.121.781-3.754 1.498-7.396 2.043-11.329l-13.552-1.997z"/><path fill="#335BAA" d="M103.795 106.314c-5.531 1.406-9.542 24.129-9.542 24.129l21.206 14.486s8.682-27.063 4.474-33.133c-4.383-6.321-8.068-7.534-16.138-5.482z"/><path fill="#F58B7D" d="M59.406 159.963l-7.264-10.37 12.587-.268s2.978 6.004.95 11.206l-6.273-.568z"/><path fill="#F58B7D" d="M51.013 144.185l.394-1.005a1.49 1.49 0 012.32-.622l3.558 2.843c1.065.85 2.551.94 3.709.224l1.103-1.245a1.168 1.168 0 011.774.029l.273.331c.58.7.946 1.552 1.055 2.455l.628 5.22-2.662-2.104-11.021-.718-1.027-2.199a4.051 4.051 0 01-.104-3.209zm99.443-90.665c2.184 13.123 3.388 18.628-1.607 26.813-7.513 12.311-24.076 12.224-30.129.043-5.449-10.964-8.103-30.581 3.354-38.724 11.286-8.022 26.2-1.254 28.382 11.868z"/><path fill="#13274C" d="M115.382 127.332c-12.859 15.706 11.236 35.366 41.096 29.121 42.796-8.951 6.348-27.521 20.609-40.984s1.733-21.86-6.932-31.856c-8.664-9.997-9.298-10.295-8.664-29.457.635-19.162-20.896-24.031-37.05-18.527-11.734 3.999-6.326 22.207.434 31.564 6.761 9.356-11.837 15.088-10.603 27.883 1.235 12.796 13.112 17.594 1.11 32.256z"/><path fill="#13274C" d="M134.81 33.614c-13.724-1.451-22.893.305-23.964 11.7-1.072 11.395 15.772 18.039 15.772 18.039l8.192-29.739z"/><path fill="#F58B7D" d="M129.035 64.975c.351 2.735-.592 5.386-2.001 7.168-2.125 2.679-5.168 1.274-6.237-1.769-.964-2.74-1.02-7.436 1.907-9.019 2.887-1.561 5.93.491 6.331 3.62z"/><path fill="#13274C" d="M124.047 187.184s3.009 27.606 7.008 61.021c2.559 21.321 5.517 45.009 8.364 65.402.705 5.165 1.423 10.109 2.111 14.762 6.237 41.861 30.278 142.291 30.278 142.291h18.266s-10.204-97.072-13.244-138.483c-7.692-104.75 4.527-120.712-12.747-144.993h-40.036z"/><path fill="#D3E4F6" d="M168.81 470.973h24.263l-.41-8.638-25.857-.668z"/><path fill="#0D213C" d="M131.055 248.205c2.559 21.321 5.517 45.009 8.364 65.402 4.26-21.662 13.856-75.238-1.232-84.581-3.63 4.799-5.886 11.5-7.132 19.179z"/><path fill="#13274C" d="M109.671 187.176s-8.659 100.625-8.048 141.483c.638 42.496 11.35 141.998 11.35 141.998h18.116s1.978-97.019 3.852-138.756c2.04-45.5 14.577-144.725 14.577-144.725h-39.847z"/><path fill="#D3E4F6" d="M110.25 470.973h23.831l.435-8.638-26.27-.668z"/><path fill="#A5C3E7" d="M164.918 183.983l2.425 4.871c.188.377-.262.763-.892.763h-57.064c-.49 0-.896-.24-.925-.549l-.459-4.87c-.031-.338.395-.624.933-.624h55.101c.403 0 .762.166.881.409z"/><path fill="#13274C" d="M157.48 190.144h1.475c.294 0 .519-.151.5-.337l-.651-6.327c-.02-.186-.275-.337-.568-.337h-1.477c-.294 0-.519.152-.5.337l.651 6.327c.02.186.276.337.57.337zm-35.771 0h1.477c.293 0 .519-.151.5-.337l-.653-6.327c-.019-.186-.275-.337-.568-.337h-1.475c-.294 0-.519.152-.5.337l.649 6.327c.018.186.275.337.57.337z"/></svg>